<?xml version="1.0" encoding="utf-8"?><svg xml:space="preserve" viewBox="0 0 100 100" y="0" x="0" xmlns="http://www.w3.org/2000/svg" id="圖層_1" version="1.1" width="40px" height="40px" xmlns:xlink="http://www.w3.org/1999/xlink" style="width:100%;height:100%;background-size:initial;background-repeat-y:initial;background-repeat-x:initial;background-position-y:initial;background-position-x:initial;background-origin:initial;background-image:initial;background-color:rgb(255, 255, 255);background-clip:initial;background-attachment:initial;animation-play-state:paused" ><g class="ldl-scale" style="transform-origin:50% 50%;transform:rotate(0deg) scale(0.8, 0.8);animation-play-state:paused" ><path fill="#333" d="M76.5 90h-53C16 90 10 84 10 76.5v-53C10 16 16 10 23.5 10h53C84 10 90 16 90 23.5v53C90 84 84 90 76.5 90z" style="fill:rgb(33, 59, 126);animation-play-state:paused" ></path>
<path fill="#e15b64" d="M60.6 29.5L50 40.1 39.4 29.5c-2.7-2.7-7.1-2.7-9.9 0-2.7 2.7-2.7 7.1 0 9.9L40.1 50 29.5 60.6c-2.7 2.7-2.7 7.1 0 9.9s7.1 2.7 9.9 0L50 59.9l10.6 10.6c2.7 2.7 7.1 2.7 9.9 0 2.7-2.7 2.7-7.1 0-9.9L59.9 50l10.6-10.6c2.7-2.7 2.7-7.1 0-9.9s-7.2-2.7-9.9 0z" style="fill:rgb(255, 255, 255);animation-play-state:paused" ></path>
<metadata xmlns:d="https://loading.io/stock/" style="animation-play-state:paused" ><d:name style="animation-play-state:paused" >close</d:name>
<d:tags style="animation-play-state:paused" >close,reject,off,disable,remove,delete,cancel,drop,collapse</d:tags>
<d:license style="animation-play-state:paused" >by</d:license>
<d:slug style="animation-play-state:paused" >ib85jh</d:slug></metadata></g><!-- generated by https://loading.io/ --></svg>